<svg viewBox="0 0 512 512" xmlns="http://www.w3.org/2000/svg" role="img" aria-label="Station 13 app icon">
  <rect width="512" height="512" rx="112" fill="#0B0D10"></rect>
  <circle cx="256" cy="256" r="220" fill="none" stroke="#49A24A" stroke-width="9" opacity="0.85"></circle>
  <g transform="translate(256,266) scale(1.14) translate(-200,-200)"><g transform="translate(200,190)"><path d="M50,90 C20,62 0,42 0,26 C0,11 12,0 26,0 C38,0 47,9 50,20 C53,9 62,0 74,0 C88,0 100,11 100,26 C100,42 80,62 50,90 Z" transform="rotate(45) scale(1.28) translate(-50,-90)" fill="#49A24A"></path><path d="M50,90 C20,62 0,42 0,26 C0,11 12,0 26,0 C38,0 47,9 50,20 C53,9 62,0 74,0 C88,0 100,11 100,26 C100,42 80,62 50,90 Z" transform="rotate(135) scale(1.28) translate(-50,-90)" fill="#49A24A"></path><path d="M50,90 C20,62 0,42 0,26 C0,11 12,0 26,0 C38,0 47,9 50,20 C53,9 62,0 74,0 C88,0 100,11 100,26 C100,42 80,62 50,90 Z" transform="rotate(225) scale(1.28) translate(-50,-90)" fill="#49A24A"></path><path d="M50,90 C20,62 0,42 0,26 C0,11 12,0 26,0 C38,0 47,9 50,20 C53,9 62,0 74,0 C88,0 100,11 100,26 C100,42 80,62 50,90 Z" transform="rotate(315) scale(1.28) translate(-50,-90)" fill="#49A24A"></path>
    <path d="M0,58 C-6,102 8,128 28,138" fill="none" stroke="#49A24A" stroke-width="15" stroke-linecap="round"></path>
    <circle r="62" fill="#49A24A"></circle>
    <text x="1" y="2" text-anchor="middle" dominant-baseline="central" font-family="&#39;Times New Roman&#39;, Georgia, serif" style="font-variant-numeric:lining-nums tabular-nums;font-feature-settings:&#39;lnum&#39; 1,&#39;tnum&#39; 1" font-size="96" font-weight="500" fill="#0B0D10">13</text></g></g></svg>